# xmcd
#
# Track frame offsets: 
#        150
#        9698
#        22000
#        36802
#        49742
#        65874
#        75905
#        98216
#        114249
#        128219
#        145468
#        153366
#        161150
#        175863
#        185323
#        195380
#        217855
#        229108
#        238495
#        250435
#        263898
#        278509
#        295141
#        307734
#        320640
#
# Disc length: 4374 seconds
#
# Revision: 1
# Processed by: cddbd v1.5.2PL0 Copyright (c) Steve Scherf et al.
# Submitted via: ExactAudioCopy v1.0b3
#
DISCID=61111419
DTITLE=The Byrds - Ballad Of Easy Rider (紙ジャケット仕様) Original Mono and Ste
DTITLE=reo Blu-spec CD2 2013 DSD Remaster SICP-30416
DYEAR=2013
DGENRE=Rock
TTITLE0=Ballad of Easy Rider (from the Columbia Motion Picture "Easy R
TTITLE0=ider")
TTITLE1=Fido
TTITLE2=Oil in My Lamp
TTITLE3=Tulsa County
TTITLE4=Jack Tarr the Sailor
TTITLE5=Jesus Is Just Alright
TTITLE6=It's All Over Now, Baby Blue
TTITLE7=There Must Be Someone (I Can Turn To)
TTITLE8=Gunga Din
TTITLE9=Deportee (Plane Wreck at Los Gatos)
TTITLE10=Armstrong, Aldrin and Dollins
TTITLE11=Ballad of Easy Rider (from the Columbia Motion Picture "Easy 
TTITLE11=Rider") [single version]
TTITLE12=Oil in My Lamp [single version]
TTITLE13=Wasn't Born to Follow [single version]
TTITLE14=Jesus Is Just Alright [single version]
TTITLE15=It's All Over Now, Baby Blue [single version]
TTITLE16=Ballad of Easy Rider (from the Columbia Motion Picture "Easy 
TTITLE16=Rider") [long version]
TTITLE17=Oil in My Lamp [alternate version]
TTITLE18=Build It Up
TTITLE19=Way behind the Sun
TTITLE20=Fiddler a Dram (Moog Experiment)
TTITLE21=Tulsa County [alternate version]
TTITLE22=Mae Jean Goes to Hollywood
TTITLE23=Fido [alternate mix]
TTITLE24=Ballad of Easy Rider (from the Columbia Motion Picture "Easy 
TTITLE24=Rider") [Stereo 45 mix]
EXTD=
EXTT0=
EXTT1=
EXTT2=
EXTT3=
EXTT4=
EXTT5=
EXTT6=
EXTT7=
EXTT8=
EXTT9=
EXTT10=
EXTT11=
EXTT12=
EXTT13=
EXTT14=
EXTT15=
EXTT16=
EXTT17=
EXTT18=
EXTT19=
EXTT20=
EXTT21=
EXTT22=
EXTT23=
EXTT24=
PLAYORDER=
